<svg id="圖層_1" data-name="圖層 1" xmlns="http://www.w3.org/2000/svg" viewBox="0 0 659.453 150"><defs><style>.cls-1{fill:#004385;}</style></defs><path class="cls-1" d="M75,150a75,75,0,1,1,75-75A75.085,75.085,0,0,1,75,150ZM75,5.276A69.724,69.724,0,1,0,144.724,75,69.8,69.8,0,0,0,75,5.276Z"/><path class="cls-1" d="M66.375,83.214H39.807V74.689l26.557.077h.007a2.684,2.684,0,0,0,2.683-2.684V48.37a2.682,2.682,0,0,0-2.683-2.683H39.807V41.506a2.683,2.683,0,0,0-5.366,0V48.37a2.683,2.683,0,0,0,2.683,2.683H47.992V63.821a2.684,2.684,0,0,0,5.367,0V51.053H63.688v18.34l-26.557-.077h-.007A2.684,2.684,0,0,0,34.441,72V109.63a2.683,2.683,0,0,0,2.683,2.683H66.38a2.684,2.684,0,0,0,2.683-2.683l0-23.733A2.685,2.685,0,0,0,66.375,83.214ZM39.807,106.946V88.581H63.694l0,18.365Zm74.206-58.934a2.684,2.684,0,1,0,0-5.367H76.274a2.684,2.684,0,0,0,0,5.367H92.46V60.383l-14.789-.009h0a2.687,2.687,0,0,0-2.683,2.683v45.274a2.683,2.683,0,1,0,5.366,0V65.741l12.108.008v42.769a2.684,2.684,0,0,0,5.367,0V65.752l12.108.008v39.869h-3.054a2.683,2.683,0,0,0,0,5.366h5.737a2.683,2.683,0,0,0,2.684-2.683V63.079a2.685,2.685,0,0,0-2.681-2.683l-14.794-.009V48.012Z"/><path class="cls-1" d="M311.35,73.438c-.347,0-.521.207-.521.625v4.069c0,.364.174.548.521.548h10.417a3.421,3.421,0,0,1,2.7,1.369,4.909,4.909,0,0,1,1.14,3.243V99.877a4.92,4.92,0,0,1-1.14,3.248,3.418,3.418,0,0,1-2.7,1.369H311.285c-.3,0-.456.18-.456.544v.157a4.555,4.555,0,0,1-1.009,3.015,3.133,3.133,0,0,1-4.948,0,4.555,4.555,0,0,1-1.009-3.015V53.882a5,5,0,0,1,1.107-3.248,3.387,3.387,0,0,1,2.734-1.369h1.172a.619.619,0,0,0,.651-.549q.717-3.675,1.172-6.649a5.735,5.735,0,0,1,1.563-3.129,3.445,3.445,0,0,1,2.474-1.092.973.973,0,0,1,.325.076l1.172.082a2.787,2.787,0,0,1,2.214,1.64,3.433,3.433,0,0,1,.521,1.8,4.2,4.2,0,0,1-.195,1.255q-1.043,3.284-2.084,6.019a.475.475,0,0,0,.033.391.314.314,0,0,0,.293.158h4.036a3.389,3.389,0,0,1,2.735,1.369,5,5,0,0,1,1.107,3.248V68.821a4.961,4.961,0,0,1-1.107,3.286,3.428,3.428,0,0,1-2.735,1.331Zm6.055-7.98c.348,0,.521-.184.521-.548V57.869c0-.364-.173-.548-.521-.548H311.35c-.347,0-.521.184-.521.548V64.91c0,.364.174.548.521.548Zm1.172,21.827c0-.418-.152-.63-.456-.63H311.35c-.347,0-.521.212-.521.63V95.89c0,.364.174.543.521.543h6.771c.3,0,.456-.179.456-.543Zm43.166-44.827a4.994,4.994,0,0,1,0,6.106,3.2,3.2,0,0,1-2.539,1.249H348.982c-.3,0-.456.207-.456.625v5.948c0,.419.152.625.456.625h8.269a3.412,3.412,0,0,1,2.734,1.331,4.959,4.959,0,0,1,1.107,3.281V91.587a17.9,17.9,0,0,1-.488,4.694,5.021,5.021,0,0,1-1.856,2.738,7.556,7.556,0,0,1-4.036,1.407h-.326a3.3,3.3,0,0,1-2.344-1.016,6.329,6.329,0,0,1-1.627-3.053,3.5,3.5,0,0,1-.131-.94,3.363,3.363,0,0,1,.456-1.722,2.182,2.182,0,0,1,1.953-1.249h.261a.8.8,0,0,0,.651-.234,1.233,1.233,0,0,0,.195-.782V66.164c0-.418-.174-.63-.521-.63h-4.3c-.3,0-.456.212-.456.63v41.611a4.8,4.8,0,0,1-1.074,3.173,3.279,3.279,0,0,1-2.6,1.287,3.373,3.373,0,0,1-2.637-1.287,4.711,4.711,0,0,1-1.107-3.173V66.164c0-.418-.152-.63-.456-.63h-3.971c-.347,0-.521.212-.521.63V95.651a4.609,4.609,0,0,1-1.042,3.053,3.205,3.205,0,0,1-5.078,0,4.614,4.614,0,0,1-1.042-3.053V61.623a4.959,4.959,0,0,1,1.107-3.281,3.414,3.414,0,0,1,2.735-1.331h7.812c.3,0,.456-.206.456-.625V50.438c0-.418-.152-.625-.456-.625H330.3a3.2,3.2,0,0,1-2.539-1.249,5,5,0,0,1,0-6.106,3.2,3.2,0,0,1,2.539-1.249H359.2A3.2,3.2,0,0,1,361.743,42.458Z"/><path class="cls-1" d="M461.848,52.785a4.586,4.586,0,0,1-1.009,2.971,3.1,3.1,0,0,1-2.507,1.255H447.068c-.3,0-.455.185-.455.549v4.063c0,.37.152.549.455.549h9.441a3.419,3.419,0,0,1,2.7,1.369,4.908,4.908,0,0,1,1.139,3.248v36.532a15.889,15.889,0,0,1-.553,4.693,5.8,5.8,0,0,1-1.921,2.814,8.518,8.518,0,0,1-4.036,1.407h-.391a3.271,3.271,0,0,1-2.344-1.016,6.438,6.438,0,0,1-1.823-2.971,4.724,4.724,0,0,1-.13-1.1,3.169,3.169,0,0,1,.391-1.565,2.18,2.18,0,0,1,1.953-1.249h.521a.82.82,0,0,0,.651-.234,1.576,1.576,0,0,0,.195-.94V97.139c0-.418-.174-.625-.521-.625h-5.274c-.3,0-.455.207-.455.625v10.245a4.861,4.861,0,0,1-1.107,3.211,3.343,3.343,0,0,1-5.339,0,4.861,4.861,0,0,1-1.107-3.211V97.139c0-.418-.173-.625-.521-.625h-5.078c-.3,0-.456.207-.456.625v10.636a4.67,4.67,0,0,1-1.074,3.091,3.2,3.2,0,0,1-5.143,0,4.666,4.666,0,0,1-1.075-3.091V73.047c0-.1-.032-.168-.1-.195a.132.132,0,0,0-.163.038q-3.581,5.556-3.841,5.942a.912.912,0,0,0,0,.94l.846,1.331a5.762,5.762,0,0,1-.13,6.416,2.1,2.1,0,0,1-1.758,1.015h-.326a2.551,2.551,0,0,1-1.953-1.488q-1.041-2.111-2.474-4.693a.171.171,0,0,0-.195-.038c-.087.027-.13.065-.13.119v25.423a4.679,4.679,0,0,1-1.075,3.091,3.213,3.213,0,0,1-5.143,0,4.683,4.683,0,0,1-1.074-3.091V87.285a.179.179,0,0,0-.131-.2.166.166,0,0,0-.195.038q-1.238,1.721-2.409,3.2a2.269,2.269,0,0,1-1.758.94,2.708,2.708,0,0,1-.586-.076,3.1,3.1,0,0,1-2.018-1.955,4.084,4.084,0,0,1-.13-.392,6.916,6.916,0,0,1-.586-2.819,6.294,6.294,0,0,1,.065-.858,5.921,5.921,0,0,1,1.3-3.287A69.31,69.31,0,0,0,413.669,61.08a.348.348,0,0,0-.326-.473h-9.115a3.138,3.138,0,0,1-2.474-1.249,4.874,4.874,0,0,1,0-6.024,3.136,3.136,0,0,1,2.474-1.25h3.386c.347,0,.521-.185.521-.549V42.149a4.67,4.67,0,0,1,1.074-3.091,3.2,3.2,0,0,1,5.143,0,4.671,4.671,0,0,1,1.075,3.091v9.386c0,.364.173.549.52.549h1.563A1.972,1.972,0,0,1,418.1,52a2.9,2.9,0,0,1,1.693.548l.911.706a3.635,3.635,0,0,1,1.27,1.875A4.118,4.118,0,0,1,422,57.478a98.442,98.442,0,0,1-5.338,14.081,1.059,1.059,0,0,0,.13,1.016l1.172,1.722q.26.472.586,0,.715-1.483,1.432-2.9a3.5,3.5,0,0,1,2.214-1.955,2.083,2.083,0,0,1,.781-.153,2.715,2.715,0,0,1,1.888.783l.456.391c.087.1.173.114.26.038a.364.364,0,0,0,.13-.277V66.789a4.909,4.909,0,0,1,1.14-3.248,3.418,3.418,0,0,1,2.7-1.369h8.984c.348,0,.521-.179.521-.549V57.56c0-.364-.173-.549-.521-.549H427.146a3.125,3.125,0,0,1-2.474-1.255,4.539,4.539,0,0,1-1.042-3.009,4.4,4.4,0,0,1,1.042-2.972,3.161,3.161,0,0,1,2.474-1.211h11.393c.348,0,.521-.212.521-.63V42.225a4.843,4.843,0,0,1,1.107-3.2,3.343,3.343,0,0,1,5.339,0,4.843,4.843,0,0,1,1.107,3.2v5.709c0,.418.152.63.455.63h7.162c.087,0,.141-.054.163-.158a.262.262,0,0,0-.033-.233,48.029,48.029,0,0,0-3.841-3.444,2.893,2.893,0,0,1-1.107-2.423,2.786,2.786,0,0,1,.717-1.956,3.5,3.5,0,0,1,2.343-1.33,1.721,1.721,0,0,1,.521-.082,3.345,3.345,0,0,1,1.953.706,36.524,36.524,0,0,1,3.451,2.738,3.627,3.627,0,0,1,1.172,2.9,4.377,4.377,0,0,1-.977,2.9l-.065.076a.206.206,0,0,0-.032.2.154.154,0,0,0,.163.119,2.84,2.84,0,0,1,2.246,1.13,4.1,4.1,0,0,1,.944,2.7ZM439.06,70.776c0-.418-.173-.624-.521-.624h-5.078c-.3,0-.456.206-.456.624v4.536c0,.37.152.549.456.549h5.078c.348,0,.521-.179.521-.549Zm-6.055,17.682c0,.364.152.544.456.544h5.078c.348,0,.521-.18.521-.544V83.841c0-.418-.173-.625-.521-.625h-5.078c-.3,0-.456.207-.456.625Zm19.858-17.682c0-.418-.174-.624-.521-.624h-5.274c-.3,0-.455.206-.455.624v4.536c0,.37.152.549.455.549h5.274c.347,0,.521-.179.521-.549Zm-6.25,17.682c0,.364.152.544.455.544h5.274c.347,0,.521-.18.521-.544V83.841c0-.418-.174-.625-.521-.625h-5.274c-.3,0-.455.207-.455.625Z"/><path class="cls-1" d="M548.473,75.789h-16.8c-.087,0-.163-.053-.228-.172a.372.372,0,0,1-.032-.337,14.976,14.976,0,0,1,.651-1.365,4.734,4.734,0,0,0,.325-1.7,4.526,4.526,0,0,0-.325-1.614c-.677-1.769-2.592-2.266-4.207-2.271a3.024,3.024,0,0,0-2.267.9,4.866,4.866,0,0,0-.844,1.543c-.572,1.472-.729,2.957-1.211,4.425a.735.735,0,0,1-.717.6H511.492a3.333,3.333,0,0,0-2.7,1.489,5.642,5.642,0,0,0-1.139,3.535v26.638a5.612,5.612,0,0,0,1.139,3.576,3.359,3.359,0,0,0,2.7,1.442h1.888a1.86,1.86,0,0,0,1.53-.8,3.211,3.211,0,0,0,.618-2q0-.336.261-.336h28c.173,0,.26.112.26.336a3.205,3.205,0,0,0,.619,2,1.86,1.86,0,0,0,1.53.8h2.279a3.329,3.329,0,0,0,2.734-1.442,5.725,5.725,0,0,0,1.107-3.576V80.813a5.756,5.756,0,0,0-1.107-3.535A3.3,3.3,0,0,0,548.473,75.789ZM544.045,100.9c0,.4-.152.6-.456.6H515.984c-.3,0-.456-.2-.456-.6v-3.83c0-.4.152-.6.456-.6h27.605c.3,0,.456.2.456.6Zm0-12.849c0,.455-.152.68-.456.68H515.984c-.3,0-.456-.225-.456-.68V84.3c0-.455.152-.68.456-.68h27.605c.3,0,.456.225.456.68Z"/><path class="cls-1" d="M556.188,42.258a3.6,3.6,0,0,0-2.7-1.207h-19.6a2.936,2.936,0,0,0-2.214.961,3.261,3.261,0,0,0-.912,2.34,3.385,3.385,0,0,0,.912,2.374,2.887,2.887,0,0,0,2.214,1h.781a.2.2,0,0,1,.2.142.24.24,0,0,1-.065.281l-.391.567a3.694,3.694,0,0,0-.716,2.2,3.954,3.954,0,0,0,.065.709,3.7,3.7,0,0,0,1.563,2.552,30.3,30.3,0,0,1,4.623,3.759.362.362,0,0,1,.1.32.341.341,0,0,1-.163.251q-3.711,1.345-7.943,2.764a2.841,2.841,0,0,0-1.757,1.7,3.25,3.25,0,0,0,0,2.552A3.558,3.558,0,0,0,532,67.511a3.656,3.656,0,0,0,1.367.286,3.951,3.951,0,0,0,1.237-.212q5.989-2.409,11-4.468a3.389,3.389,0,0,0,1.758-1.7,3.7,3.7,0,0,0,.455-1.773,5.065,5.065,0,0,0-.065-.779,2.758,2.758,0,0,0-1.3-1.847,2.345,2.345,0,0,0-1.237-.355,2.883,2.883,0,0,0-.846.143q-1.889.709-2.93,1.133a.173.173,0,0,1-.13-.069c-.044-.044-.044-.118,0-.212l.976-1.419a4.294,4.294,0,0,0,.782-2.483v-.64a3.821,3.821,0,0,0-1.563-2.695,44.176,44.176,0,0,0-3.906-2.483c-.044,0-.055-.034-.033-.108s.054-.1.1-.1h11.784c.3,0,.456.167.456.5v16.6a1.057,1.057,0,0,1-.228.783,1.592,1.592,0,0,1-.879.281h-3.06a1.79,1.79,0,0,0-1.725.922,2.374,2.374,0,0,0-.228,2.128,5.375,5.375,0,0,0,1.627,2.414,3.444,3.444,0,0,0,2.344.921h.131A16.51,16.51,0,0,0,554.4,71.2a4.649,4.649,0,0,0,2.312-2.271,10.444,10.444,0,0,0,.618-4.04V45.239A4.176,4.176,0,0,0,556.188,42.258Z"/><path class="cls-1" d="M614.2,91.739a2.55,2.55,0,0,1,2.54.473,3.716,3.716,0,0,1,1.367,2.58,4.377,4.377,0,0,1,.065.707,5.238,5.238,0,0,1-.651,2.58,3.992,3.992,0,0,1-2.279,2.032q-10.482,3.682-13.933,4.851a3.45,3.45,0,0,1-.976.157,3.2,3.2,0,0,1-1.758-.549,3.89,3.89,0,0,1-1.563-2.737,6.918,6.918,0,0,1-.065-.94,5.534,5.534,0,0,1,.586-2.5,4,4,0,0,1,2.344-2.031c.3-.1.814-.261,1.53-.467s1.27-.364,1.66-.473a.722.722,0,0,0,.456-.782V77.268c0-.413-.152-.625-.456-.625h-1.432a3.2,3.2,0,0,1-2.539-1.249,4.876,4.876,0,0,1,0-6.025,3.2,3.2,0,0,1,2.539-1.249h1.432c.3,0,.456-.212.456-.63V51.378c0-.364-.152-.549-.456-.549h-2.018a3.159,3.159,0,0,1-2.539-1.287,4.772,4.772,0,0,1-1.042-3.091,4.616,4.616,0,0,1,1.042-3.053,3.2,3.2,0,0,1,2.539-1.249h12.175a3.2,3.2,0,0,1,2.539,1.249,4.621,4.621,0,0,1,1.042,3.053,4.778,4.778,0,0,1-1.042,3.091,3.159,3.159,0,0,1-2.539,1.287h-1.953c-.3,0-.456.185-.456.549V67.49c0,.418.152.63.456.63h1.106a3.23,3.23,0,0,1,2.507,1.249,4.762,4.762,0,0,1,0,6.025,3.23,3.23,0,0,1-2.507,1.249h-1.106c-.3,0-.456.212-.456.625v15.02a.446.446,0,0,0,.13.353.29.29,0,0,0,.326.038Zm4.818-43.957a2.863,2.863,0,0,1,4.623,0,4.249,4.249,0,0,1,.977,2.814V79.93a4.252,4.252,0,0,1-.977,2.814,2.864,2.864,0,0,1-4.623,0,4.252,4.252,0,0,1-.976-2.814V50.6A4.248,4.248,0,0,1,619.021,47.782Zm10.515-9.039a3.086,3.086,0,0,1,2.442-1.212,3.179,3.179,0,0,1,2.474,1.212,4.353,4.353,0,0,1,1.041,2.933V72.107q0,6.341-.39,11.028a74.306,74.306,0,0,1-1.5,9.74,34.116,34.116,0,0,1-3.45,9.273,31.736,31.736,0,0,1-5.86,7.583,3.1,3.1,0,0,1-2.083.864,3.5,3.5,0,0,1-.717-.082,4.107,4.107,0,0,1-2.539-1.8,4.551,4.551,0,0,1-.781-2.58v-.467a4.174,4.174,0,0,1,1.237-2.738,26.514,26.514,0,0,0,4.753-6.3,28.86,28.86,0,0,0,2.8-7.626,61.245,61.245,0,0,0,1.237-7.975q.325-3.838.326-9V41.676A4.436,4.436,0,0,1,629.536,38.743Zm21.583,61.683c0,.418.174.624.521.624h4.167a3.237,3.237,0,0,1,2.571,1.293,4.974,4.974,0,0,1,0,6.177,3.239,3.239,0,0,1-2.571,1.292H636.535a3.242,3.242,0,0,1-2.572-1.292,4.978,4.978,0,0,1,0-6.177,3.24,3.24,0,0,1,2.572-1.293h6.511c.347,0,.521-.206.521-.624V79.615c0-.413-.174-.625-.521-.625h-2.279a3.2,3.2,0,0,1-2.539-1.249,4.566,4.566,0,0,1-1.042-3.015,4.4,4.4,0,0,1,1.042-2.972,3.224,3.224,0,0,1,2.539-1.211h2.279c.347,0,.521-.207.521-.625V51.22c0-.364-.174-.548-.521-.548h-2.474a3.19,3.19,0,0,1-2.507-1.288,4.68,4.68,0,0,1-1.074-3.091,4.534,4.534,0,0,1,1.074-3.053,3.23,3.23,0,0,1,2.507-1.249h14.063a3.228,3.228,0,0,1,2.506,1.249,4.529,4.529,0,0,1,1.075,3.053,4.675,4.675,0,0,1-1.075,3.091,3.188,3.188,0,0,1-2.506,1.288h-3c-.347,0-.521.184-.521.548v18.7c0,.418.174.625.521.625h2.734a3.226,3.226,0,0,1,2.54,1.211,4.406,4.406,0,0,1,1.041,2.972,4.571,4.571,0,0,1-1.041,3.015,3.2,3.2,0,0,1-2.54,1.249H651.64c-.347,0-.521.212-.521.625Z"/><path class="cls-1" d="M256.671,72.46a3.423,3.423,0,0,0-2.7-1.369H236.476c14.563-12.268,15.816-22.687,15.876-23.3a3.692,3.692,0,0,0-1.705-3.478,1.291,1.291,0,0,0,.145-.257h-.623a3.77,3.77,0,0,0-1.122-.325,3.732,3.732,0,0,0-1.944.325H233.478a.171.171,0,0,1-.161-.13.317.317,0,0,1,0-.256c.287-.517.574-1.039.862-1.556a2.986,2.986,0,0,0,.323-1.358,3.472,3.472,0,0,0-.161-1.039,2.243,2.243,0,0,0-1.617-1.551l-1.132-.261a6.249,6.249,0,0,0-.862-.063,3.682,3.682,0,0,0-1.832.517,5.437,5.437,0,0,0-2.1,2.136,47.939,47.939,0,0,1-13.9,15.932A2.843,2.843,0,0,0,211.76,58.5v.391a3.026,3.026,0,0,0,.7,2.006,2.956,2.956,0,0,0,.377.584,3.611,3.611,0,0,0,2.21,1.489,1.753,1.753,0,0,0,.647.13,2.927,2.927,0,0,0,1.778-.648c1.078-.908,2.1-1.811,3.072-2.72a.472.472,0,0,1,.647,0,91.216,91.216,0,0,1,7.478,8.009,107.422,107.422,0,0,1-20.613,11.941,3.747,3.747,0,0,0,3.086,6.829c2.817-1.277,5.419-2.568,7.864-3.865v25.1a4.96,4.96,0,0,0,1.107,3.281,3.412,3.412,0,0,0,2.734,1.331h1.758a1.994,1.994,0,0,0,1.628-.821,2.992,2.992,0,0,0,.651-1.917q0-.392.326-.391h22.006q.325,0,.325.391a3,3,0,0,0,.684,1.993,2.088,2.088,0,0,0,1.66.826h2.084a3.459,3.459,0,0,0,2.7-1.331,4.884,4.884,0,0,0,1.139-3.286V75.709A4.918,4.918,0,0,0,256.671,72.46Zm-22.33-9.685a83.612,83.612,0,0,0-8.138-8.161c-.252-.171-.269-.387-.054-.647.539-.648,1.24-1.529,2.1-2.654a.979.979,0,0,1,.7-.323s9.119.022,14.531.065a41.688,41.688,0,0,1-9.689,12.419c.2-.223.416-.441.609-.663C234.383,62.792,234.36,62.8,234.341,62.775Zm15.2,37.3c0,.418-.173.63-.52.63H227.405c-.347,0-.521-.212-.521-.63V80.321c0-.364.174-.543.521-.543h21.616c.347,0,.52.179.52.543Z"/><path class="cls-1" d="M526.108,42.258a3.6,3.6,0,0,0-2.7-1.207h-19.6a2.934,2.934,0,0,0-2.213.961,3.261,3.261,0,0,0-.912,2.34,3.385,3.385,0,0,0,.912,2.374,2.885,2.885,0,0,0,2.213,1h.782a.205.205,0,0,1,.195.142.241.241,0,0,1-.065.281l-.391.567a3.694,3.694,0,0,0-.716,2.2,3.954,3.954,0,0,0,.065.709,3.7,3.7,0,0,0,1.563,2.552,30.283,30.283,0,0,1,4.622,3.759.36.36,0,0,1,.1.32.341.341,0,0,1-.163.251q-3.711,1.345-7.943,2.764a2.84,2.84,0,0,0-1.758,1.7,3.261,3.261,0,0,0,0,2.552,3.562,3.562,0,0,0,1.823,1.985,3.66,3.66,0,0,0,1.367.286,3.946,3.946,0,0,0,1.237-.212q5.991-2.409,11-4.468a3.382,3.382,0,0,0,1.758-1.7,3.7,3.7,0,0,0,.456-1.773,5.194,5.194,0,0,0-.065-.779,2.764,2.764,0,0,0-1.3-1.847,2.348,2.348,0,0,0-1.237-.355,2.884,2.884,0,0,0-.847.143q-1.887.709-2.929,1.133a.175.175,0,0,1-.131-.069c-.043-.044-.043-.118,0-.212l.977-1.419a4.293,4.293,0,0,0,.781-2.483v-.64a3.816,3.816,0,0,0-1.562-2.695,44.046,44.046,0,0,0-3.907-2.483c-.043,0-.054-.034-.032-.108s.054-.1.1-.1H519.37c.3,0,.455.167.455.5v16.6a1.057,1.057,0,0,1-.227.783,1.592,1.592,0,0,1-.879.281h-3.06a1.792,1.792,0,0,0-1.726.922,2.38,2.38,0,0,0-.228,2.128,5.377,5.377,0,0,0,1.628,2.414,3.444,3.444,0,0,0,2.344.921h.13a16.512,16.512,0,0,0,6.511-1.064,4.647,4.647,0,0,0,2.311-2.271,10.423,10.423,0,0,0,.619-4.04V45.239A4.172,4.172,0,0,0,526.108,42.258Z"/></svg>